<?xml version="1.0" encoding="utf-8"?>
<?xml-stylesheet type="text/xsl" href="rss1.xsl"?>
<rss version="2.0" xmlns:atom="http://www.w3.org/2005/Atom" xmlns:content="http://purl.org/rss/1.0/modules/content/" xmlns:dc="http://purl.org/dc/elements/1.1/" xmlns:media="http://search.yahoo.com/mrss/">
<channel>
 <title>Getty</title>
 <link>http://www.gettyimg.com/</link>
 <atom:link href="http://www.gettyimg.com/" rel="self" type="application/rss+xml" />

 
                <item>
                <title><![CDATA[【Requests】[REQ AUD] - kd lang "Sexuality (Teri Bristol Vocal House Mix)"]]></title>
                <link><![CDATA[https://sharemania.us/threads/kd-lang-sexuality-teri-bristol-vocal-house-mix.239752/]]></link>
                <description><![CDATA[<article>
<blockquote class="messageText SelectQuoteContainer ugc baseHtml">
Hi! Does anyone have this song in lossless please?
<div class="messageTextEndMarker">&nbsp;</div>
</blockquote>
</article>]]></description>
                <author><![CDATA[michaeldila]]></author>
                </item>

                
                <item>
                <title><![CDATA[【Cinema Center】MOVIE - Miraculous: Tales of Ladybug and Cat Noir: "Action" special (Netflix/FHD1080P/DD5.1)]]></title>
                <link><![CDATA[https://sharemania.us/threads/miraculous-tales-of-ladybug-and-cat-noir-action-special-netflix-fhd1080p-dd5-1.239753/]]></link>
                <description><![CDATA[<article>
<blockquote class="messageText SelectQuoteContainer ugc baseHtml">
<b>Languages: English, German, French, Italian, Spanish, Greek<br>
<br>
</b>
<div class="ToggleTriggerAnchor bbCodeSpoilerContainer">
<button type="button" class="button bbCodeSpoilerButton ToggleTrigger Tooltip JsOnly" data-target="> .SpoilerTarget"><span>Spoiler: <span class="SpoilerTitle">Media Info</span></span></button>
<div class="SpoilerTarget bbCodeSpoilerText">Video<br>
ID : 1<br>
Format : AVC<br>
Format/Info : Advanced Video Codec<br>
Format profile : High@L4<br>
Format settings, CABAC : Yes<br>
Format settings, RefFrames : 4 frames<br>
Codec ID : V_MPEG4/ISO/AVC<br>
Duration : 22 min 44 s<br>
Bit rate : 2 965 kb/s<br>
Width : 1 920 pixels<br>
Height : 1 080 pixels<br>
Display aspect ratio : 16:9<br>
Frame rate mode : Constant<br>
Frame rate : 24.000 FPS<br>
Color space : YUV<br>
Chroma subsampling : 4:2:0<br>
Bit depth : 8 bits<br>
Scan type : Progressive<br>
Bits/(Pixel*Frame) : 0.060<br>
Stream size : 482 MiB (44%)<br>
Default : Yes<br>
Forced : No<br>
<br>
Audio #1<br>
ID : 2<br>
Format : E-AC-3<br>
Format/Info : Enhanced Audio Coding 3<br>
Format settings, Endianness : Big<br>
Codec ID : A_EAC3<br>
Duration : 22 min 44 s<br>
Bit rate mode : Constant<br>
Bit rate : 640 kb/s<br>
Channel(s) : 6 channels<br>
Channel positions : Front: L C R, Side: L R, LFE<br>
Sampling rate : 48.0 kHz<br>
Frame rate : 187.500 FPS (256 SPF)<br>
Compression mode : Lossy<br>
Delay relative to video : -83 ms<br>
Stream size : 104 MiB (9%)<br>
Language : English<br>
Service kind : Complete Main<br>
Default : Yes<br>
Forced : No<br>
<br>
Audio #2<br>
ID : 3<br>
Format : E-AC-3<br>
Format/Info : Enhanced Audio Coding 3<br>
Format settings, Endianness : Big<br>
Codec ID : A_EAC3<br>
Duration : 22 min 44 s<br>
Bit rate mode : Constant<br>
Bit rate : 640 kb/s<br>
Channel(s) : 6 channels<br>
Channel positions : Front: L C R, Side: L R, LFE<br>
Sampling rate : 48.0 kHz<br>
Frame rate : 187.500 FPS (256 SPF)<br>
Compression mode : Lossy<br>
Delay relative to video : -83 ms<br>
Stream size : 104 MiB (9%)<br>
Language : German<br>
Service kind : Complete Main<br>
Default : Yes<br>
Forced : No<br>
<br>
Audio #3<br>
ID : 4<br>
Format : E-AC-3<br>
Format/Info : Enhanced Audio Coding 3<br>
Format settings, Endianness : Big<br>
Codec ID : A_EAC3<br>
Duration : 22 min 44 s<br>
Bit rate mode : Constant<br>
Bit rate : 640 kb/s<br>
Channel(s) : 6 channels<br>
Channel positions : Front: L C R, Side: L R, LFE<br>
Sampling rate : 48.0 kHz<br>
Frame rate : 187.500 FPS (256 SPF)<br>
Compression mode : Lossy<br>
Delay relative to video : -83 ms<br>
Stream size : 104 MiB (9%)<br>
Language : French<br>
Service kind : Complete Main<br>
Default : Yes<br>
Forced : No<br>
<br>
Audio #4<br>
ID : 5<br>
Format : E-AC-3<br>
Format/Info : Enhanced Audio Coding 3<br>
Format settings, Endianness : Big<br>
Codec ID : A_EAC3<br>
Duration : 22 min 44 s<br>
Bit rate mode : Constant<br>
Bit rate : 640 kb/s<br>
Channel(s) : 6 channels<br>
Channel positions : Front: L C R, Side: L R, LFE<br>
Sampling rate : 48.0 kHz<br>
Frame rate : 187.500 FPS (256 SPF)<br>
Compression mode : Lossy<br>
Delay relative to video : -83 ms<br>
Stream size : 104 MiB (9%)<br>
Language : Italian<br>
Service kind : Complete Main<br>
Default : Yes<br>
Forced : No<br>
<br>
Audio #5<br>
ID : 6<br>
Format : E-AC-3<br>
Format/Info : Enhanced Audio Coding 3<br>
Format settings, Endianness : Big<br>
Codec ID : A_EAC3<br>
Duration : 22 min 44 s<br>
Bit rate mode : Constant<br>
Bit rate : 640 kb/s<br>
Channel(s) : 6 channels<br>
Channel positions : Front: L C R, Side: L R, LFE<br>
Sampling rate : 48.0 kHz<br>
Frame rate : 187.500 FPS (256 SPF)<br>
Compression mode : Lossy<br>
Delay relative to video : -83 ms<br>
Stream size : 104 MiB (9%)<br>
Language : Spanish<br>
Service kind : Complete Main<br>
Default : Yes<br>
Forced : No<br>
<br>
Audio #6<br>
ID : 7<br>
Format : E-AC-3<br>
Format/Info : Enhanced Audio Coding 3<br>
Format settings, Endianness : Big<br>
Codec ID : A_EAC3<br>
Duration : 22 min 44 s<br>
Bit rate mode : Constant<br>
Bit rate : 640 kb/s<br>
Channel(s) : 6 channels<br>
Channel positions : Front: L C R, Side: L R, LFE<br>
Sampling rate : 48.0 kHz<br>
Frame rate : 187.500 FPS (256 SPF)<br>
Compression mode : Lossy<br>
Delay relative to video : -83 ms<br>
Stream size : 104 MiB (9%)<br>
Language : Greek<br>
Service kind : Complete Main<br>
Default : Yes<br>
Forced : No<br>
<br>
Text<br>
ID : 8<br>
Format : S_TEXT/WEBVTT<br>
Codec ID : S_TEXT/WEBVTT<br>
Duration : 22 min 20 s<br>
Bit rate : 276 b/s<br>
Count of elements : 463<br>
Stream size : 45.3 KiB (0%)<br>
Language : English<br>
Default : No<br>
Forced : No<br>
<b><br>
</b></div>
</div><br>
<b><br>
</b>
<div class="bbCodeBlock bbCodeVfcHH HiddenContent">
<div class="attribution type">Hidden Content:</div>
<blockquote>You must reply before you can see the hidden data contained here.</blockquote>
</div>
<div class="messageTextEndMarker">&nbsp;</div>
</blockquote>
</article>]]></description>
                <author><![CDATA[Lakley]]></author>
                </item>

                </channel></rss>